<svg width="477" height="59" viewBox="0 0 477 59" fill="none" xmlns="http://www.w3.org/2000/svg">
<path d="M10.5859 1.125V58H0.78125V1.125H10.5859ZM33.7891 26.0078V33.7812H8.08594V26.0078H33.7891ZM37.0312 1.125V8.9375H8.08594V1.125H37.0312ZM63.3125 1.125V58H53.5078V1.125H63.3125ZM105.727 1.125V58H96V1.125H105.727ZM123.578 1.125V8.9375H78.3047V1.125H123.578ZM184.195 1.125V58H174.391L148.883 17.2578V58H139.078V1.125H148.883L174.469 41.9453V1.125H184.195ZM241.102 50.2266V58H210.906V50.2266H241.102ZM213.68 1.125V58H203.875V1.125H213.68ZM237.156 24.875V32.5312H210.906V24.875H237.156ZM240.906 1.125V8.9375H210.906V1.125H240.906ZM287.031 43.3516C287.031 42.1797 286.849 41.138 286.484 40.2266C286.146 39.3151 285.534 38.4818 284.648 37.7266C283.763 36.9714 282.513 36.2422 280.898 35.5391C279.31 34.8099 277.279 34.0677 274.805 33.3125C272.096 32.4792 269.596 31.5547 267.305 30.5391C265.039 29.4974 263.06 28.2995 261.367 26.9453C259.674 25.5651 258.359 23.9896 257.422 22.2188C256.484 20.4219 256.016 18.3516 256.016 16.0078C256.016 13.6901 256.497 11.5807 257.461 9.67969C258.451 7.77865 259.844 6.13802 261.641 4.75781C263.464 3.35156 265.612 2.27083 268.086 1.51562C270.56 0.734375 273.294 0.34375 276.289 0.34375C280.508 0.34375 284.141 1.125 287.188 2.6875C290.26 4.25 292.617 6.34635 294.258 8.97656C295.924 11.6068 296.758 14.5104 296.758 17.6875H287.031C287.031 15.8125 286.628 14.1589 285.82 12.7266C285.039 11.2682 283.841 10.1224 282.227 9.28906C280.638 8.45573 278.62 8.03906 276.172 8.03906C273.854 8.03906 271.927 8.39062 270.391 9.09375C268.854 9.79688 267.708 10.7474 266.953 11.9453C266.198 13.1432 265.82 14.4974 265.82 16.0078C265.82 17.0755 266.068 18.0521 266.562 18.9375C267.057 19.7969 267.812 20.6042 268.828 21.3594C269.844 22.0885 271.12 22.7786 272.656 23.4297C274.193 24.0807 276.003 24.7057 278.086 25.3047C281.237 26.2422 283.984 27.2839 286.328 28.4297C288.672 29.5495 290.625 30.8255 292.188 32.2578C293.75 33.6901 294.922 35.3177 295.703 37.1406C296.484 38.9375 296.875 40.9818 296.875 43.2734C296.875 45.6693 296.393 47.8307 295.43 49.7578C294.466 51.6589 293.086 53.2865 291.289 54.6406C289.518 55.9688 287.383 56.9974 284.883 57.7266C282.409 58.4297 279.648 58.7812 276.602 58.7812C273.867 58.7812 271.172 58.4167 268.516 57.6875C265.885 56.9583 263.49 55.8516 261.328 54.3672C259.167 52.8568 257.448 50.9818 256.172 48.7422C254.896 46.4766 254.258 43.8333 254.258 40.8125H264.062C264.062 42.6615 264.375 44.237 265 45.5391C265.651 46.8411 266.549 47.9089 267.695 48.7422C268.841 49.5495 270.169 50.1484 271.68 50.5391C273.216 50.9297 274.857 51.125 276.602 51.125C278.893 51.125 280.807 50.7995 282.344 50.1484C283.906 49.4974 285.078 48.5859 285.859 47.4141C286.641 46.2422 287.031 44.888 287.031 43.3516ZM343.469 43.3516C343.469 42.1797 343.286 41.138 342.922 40.2266C342.583 39.3151 341.971 38.4818 341.086 37.7266C340.201 36.9714 338.951 36.2422 337.336 35.5391C335.747 34.8099 333.716 34.0677 331.242 33.3125C328.534 32.4792 326.034 31.5547 323.742 30.5391C321.477 29.4974 319.497 28.2995 317.805 26.9453C316.112 25.5651 314.797 23.9896 313.859 22.2188C312.922 20.4219 312.453 18.3516 312.453 16.0078C312.453 13.6901 312.935 11.5807 313.898 9.67969C314.888 7.77865 316.281 6.13802 318.078 4.75781C319.901 3.35156 322.049 2.27083 324.523 1.51562C326.997 0.734375 329.732 0.34375 332.727 0.34375C336.945 0.34375 340.578 1.125 343.625 2.6875C346.698 4.25 349.055 6.34635 350.695 8.97656C352.362 11.6068 353.195 14.5104 353.195 17.6875H343.469C343.469 15.8125 343.065 14.1589 342.258 12.7266C341.477 11.2682 340.279 10.1224 338.664 9.28906C337.076 8.45573 335.057 8.03906 332.609 8.03906C330.292 8.03906 328.365 8.39062 326.828 9.09375C325.292 9.79688 324.146 10.7474 323.391 11.9453C322.635 13.1432 322.258 14.4974 322.258 16.0078C322.258 17.0755 322.505 18.0521 323 18.9375C323.495 19.7969 324.25 20.6042 325.266 21.3594C326.281 22.0885 327.557 22.7786 329.094 23.4297C330.63 24.0807 332.44 24.7057 334.523 25.3047C337.674 26.2422 340.422 27.2839 342.766 28.4297C345.109 29.5495 347.062 30.8255 348.625 32.2578C350.188 33.6901 351.359 35.3177 352.141 37.1406C352.922 38.9375 353.312 40.9818 353.312 43.2734C353.312 45.6693 352.831 47.8307 351.867 49.7578C350.904 51.6589 349.523 53.2865 347.727 54.6406C345.956 55.9688 343.82 56.9974 341.32 57.7266C338.846 58.4297 336.086 58.7812 333.039 58.7812C330.305 58.7812 327.609 58.4167 324.953 57.6875C322.323 56.9583 319.927 55.8516 317.766 54.3672C315.604 52.8568 313.885 50.9818 312.609 48.7422C311.333 46.4766 310.695 43.8333 310.695 40.8125H320.5C320.5 42.6615 320.812 44.237 321.438 45.5391C322.089 46.8411 322.987 47.9089 324.133 48.7422C325.279 49.5495 326.607 50.1484 328.117 50.5391C329.654 50.9297 331.294 51.125 333.039 51.125C335.331 51.125 337.245 50.7995 338.781 50.1484C340.344 49.4974 341.516 48.5859 342.297 47.4141C343.078 46.2422 343.469 44.888 343.469 43.3516ZM387.992 29.9531V37.4531H367.328V29.9531H387.992ZM427.32 8.70312L410.328 58H400.055L421.461 1.125H428.023L427.32 8.70312ZM441.539 58L424.508 8.70312L423.766 1.125H430.367L451.852 58H441.539ZM440.719 36.9062V44.6797H409.781V36.9062H440.719ZM476.688 1.125V58H466.883V1.125H476.688Z" fill="#1A1B1F"/>
<path d="M10.5859 1.125H11.5859V0.125H10.5859V1.125ZM10.5859 58V59H11.5859V58H10.5859ZM0.78125 58H-0.21875V59H0.78125V58ZM0.78125 1.125V0.125H-0.21875V1.125H0.78125ZM33.7891 26.0078H34.7891V25.0078H33.7891V26.0078ZM33.7891 33.7812V34.7812H34.7891V33.7812H33.7891ZM8.08594 33.7812H7.08594V34.7812H8.08594V33.7812ZM8.08594 26.0078V25.0078H7.08594V26.0078H8.08594ZM37.0312 1.125H38.0312V0.125H37.0312V1.125ZM37.0312 8.9375V9.9375H38.0312V8.9375H37.0312ZM8.08594 8.9375H7.08594V9.9375H8.08594V8.9375ZM8.08594 1.125V0.125H7.08594V1.125H8.08594ZM9.58594 1.125V58H11.5859V1.125H9.58594ZM10.5859 57H0.78125V59H10.5859V57ZM1.78125 58V1.125H-0.21875V58H1.78125ZM0.78125 2.125H10.5859V0.125H0.78125V2.125ZM32.7891 26.0078V33.7812H34.7891V26.0078H32.7891ZM33.7891 32.7812H8.08594V34.7812H33.7891V32.7812ZM9.08594 33.7812V26.0078H7.08594V33.7812H9.08594ZM8.08594 27.0078H33.7891V25.0078H8.08594V27.0078ZM36.0312 1.125V8.9375H38.0312V1.125H36.0312ZM37.0312 7.9375H8.08594V9.9375H37.0312V7.9375ZM9.08594 8.9375V1.125H7.08594V8.9375H9.08594ZM8.08594 2.125H37.0312V0.125H8.08594V2.125ZM63.3125 1.125H64.3125V0.125H63.3125V1.125ZM63.3125 58V59H64.3125V58H63.3125ZM53.5078 58H52.5078V59H53.5078V58ZM53.5078 1.125V0.125H52.5078V1.125H53.5078ZM62.3125 1.125V58H64.3125V1.125H62.3125ZM63.3125 57H53.5078V59H63.3125V57ZM54.5078 58V1.125H52.5078V58H54.5078ZM53.5078 2.125H63.3125V0.125H53.5078V2.125ZM105.727 1.125H106.727V0.125H105.727V1.125ZM105.727 58V59H106.727V58H105.727ZM96 58H95V59H96V58ZM96 1.125V0.125H95V1.125H96ZM123.578 1.125H124.578V0.125H123.578V1.125ZM123.578 8.9375V9.9375H124.578V8.9375H123.578ZM78.3047 8.9375H77.3047V9.9375H78.3047V8.9375ZM78.3047 1.125V0.125H77.3047V1.125H78.3047ZM104.727 1.125V58H106.727V1.125H104.727ZM105.727 57H96V59H105.727V57ZM97 58V1.125H95V58H97ZM96 2.125H105.727V0.125H96V2.125ZM122.578 1.125V8.9375H124.578V1.125H122.578ZM123.578 7.9375H78.3047V9.9375H123.578V7.9375ZM79.3047 8.9375V1.125H77.3047V8.9375H79.3047ZM78.3047 2.125H123.578V0.125H78.3047V2.125ZM184.195 1.125H185.195V0.125H184.195V1.125ZM184.195 58V59H185.195V58H184.195ZM174.391 58L173.543 58.5307L173.837 59H174.391V58ZM148.883 17.2578L149.73 16.7272L147.883 13.7761V17.2578H148.883ZM148.883 58V59H149.883V58H148.883ZM139.078 58H138.078V59H139.078V58ZM139.078 1.125V0.125H138.078V1.125H139.078ZM148.883 1.125L149.73 0.593906L149.436 0.125H148.883V1.125ZM174.469 41.9453L173.621 42.4764L175.469 45.4236V41.9453H174.469ZM174.469 1.125V0.125H173.469V1.125H174.469ZM183.195 1.125V58H185.195V1.125H183.195ZM184.195 57H174.391V59H184.195V57ZM175.238 57.4693L149.73 16.7272L148.035 17.7885L173.543 58.5307L175.238 57.4693ZM147.883 17.2578V58H149.883V17.2578H147.883ZM148.883 57H139.078V59H148.883V57ZM140.078 58V1.125H138.078V58H140.078ZM139.078 2.125H148.883V0.125H139.078V2.125ZM148.035 1.65609L173.621 42.4764L175.316 41.4142L149.73 0.593906L148.035 1.65609ZM175.469 41.9453V1.125H173.469V41.9453H175.469ZM174.469 2.125H184.195V0.125H174.469V2.125ZM241.102 50.2266H242.102V49.2266H241.102V50.2266ZM241.102 58V59H242.102V58H241.102ZM210.906 58H209.906V59H210.906V58ZM210.906 50.2266V49.2266H209.906V50.2266H210.906ZM213.68 1.125H214.68V0.125H213.68V1.125ZM213.68 58V59H214.68V58H213.68ZM203.875 58H202.875V59H203.875V58ZM203.875 1.125V0.125H202.875V1.125H203.875ZM237.156 24.875H238.156V23.875H237.156V24.875ZM237.156 32.5312V33.5312H238.156V32.5312H237.156ZM210.906 32.5312H209.906V33.5312H210.906V32.5312ZM210.906 24.875V23.875H209.906V24.875H210.906ZM240.906 1.125H241.906V0.125H240.906V1.125ZM240.906 8.9375V9.9375H241.906V8.9375H240.906ZM210.906 8.9375H209.906V9.9375H210.906V8.9375ZM210.906 1.125V0.125H209.906V1.125H210.906ZM240.102 50.2266V58H242.102V50.2266H240.102ZM241.102 57H210.906V59H241.102V57ZM211.906 58V50.2266H209.906V58H211.906ZM210.906 51.2266H241.102V49.2266H210.906V51.2266ZM212.68 1.125V58H214.68V1.125H212.68ZM213.68 57H203.875V59H213.68V57ZM204.875 58V1.125H202.875V58H204.875ZM203.875 2.125H213.68V0.125H203.875V2.125ZM236.156 24.875V32.5312H238.156V24.875H236.156ZM237.156 31.5312H210.906V33.5312H237.156V31.5312ZM211.906 32.5312V24.875H209.906V32.5312H211.906ZM210.906 25.875H237.156V23.875H210.906V25.875ZM239.906 1.125V8.9375H241.906V1.125H239.906ZM240.906 7.9375H210.906V9.9375H240.906V7.9375ZM211.906 8.9375V1.125H209.906V8.9375H211.906ZM210.906 2.125H240.906V0.125H210.906V2.125ZM286.484 40.2266L285.547 40.5748L285.551 40.5864L285.556 40.598L286.484 40.2266ZM284.648 37.7266L283.999 38.4874L284.648 37.7266ZM280.898 35.5391L280.481 36.4479L280.49 36.452L280.499 36.4559L280.898 35.5391ZM274.805 33.3125L274.511 34.2683L274.513 34.2689L274.805 33.3125ZM267.305 30.5391L266.887 31.4477L266.9 31.4533L267.305 30.5391ZM261.367 26.9453L260.735 27.7204L260.742 27.7262L261.367 26.9453ZM257.422 22.2188L256.535 22.6813L256.538 22.6866L257.422 22.2188ZM257.461 9.67969L256.574 9.21793L256.569 9.22759L257.461 9.67969ZM261.641 4.75781L262.25 5.55087L262.251 5.54959L261.641 4.75781ZM268.086 1.51562L268.378 2.4721L268.387 2.46921L268.086 1.51562ZM287.188 2.6875L286.731 3.57732L286.734 3.57888L287.188 2.6875ZM294.258 8.97656L293.409 9.50582L293.413 9.51181L294.258 8.97656ZM296.758 17.6875V18.6875H297.758V17.6875H296.758ZM287.031 17.6875H286.031V18.6875H287.031V17.6875ZM285.82 12.7266L284.939 13.1988L284.944 13.2082L284.949 13.2176L285.82 12.7266ZM282.227 9.28906L281.762 10.1746L281.768 10.1777L282.227 9.28906ZM270.391 9.09375L269.974 8.18444L270.391 9.09375ZM266.562 18.9375L265.689 19.4254L265.696 19.4365L266.562 18.9375ZM268.828 21.3594L268.231 22.1618L268.238 22.1668L268.245 22.1717L268.828 21.3594ZM272.656 23.4297L272.266 24.3504L272.656 23.4297ZM278.086 25.3047L278.371 24.3462L278.362 24.3436L278.086 25.3047ZM286.328 28.4297L285.889 29.3281L285.897 29.332L286.328 28.4297ZM295.703 37.1406L294.784 37.5345L294.786 37.5394L295.703 37.1406ZM295.43 49.7578L296.322 50.2099L296.324 50.205L295.43 49.7578ZM291.289 54.6406L291.889 55.4406L291.891 55.4392L291.289 54.6406ZM284.883 57.7266L285.156 58.6885L285.163 58.6866L284.883 57.7266ZM268.516 57.6875L268.248 58.6512L268.251 58.6518L268.516 57.6875ZM261.328 54.3672L260.755 55.1869L260.762 55.1915L261.328 54.3672ZM256.172 48.7422L255.301 49.2329L255.303 49.2372L256.172 48.7422ZM254.258 40.8125V39.8125H253.258V40.8125H254.258ZM264.062 40.8125H265.062V39.8125H264.062V40.8125ZM265 45.5391L264.098 45.9718L264.102 45.9791L264.106 45.9863L265 45.5391ZM267.695 48.7422L267.107 49.5509L267.113 49.5553L267.119 49.5597L267.695 48.7422ZM271.68 50.5391L271.429 51.5072L271.433 51.5082L271.68 50.5391ZM282.344 50.1484L281.959 49.2253L281.954 49.2277L282.344 50.1484ZM288.031 43.3516C288.031 42.0766 287.833 40.9052 287.413 39.8552L285.556 40.598C285.865 41.3708 286.031 42.2828 286.031 43.3516H288.031ZM287.422 39.8784C287.013 38.7783 286.287 37.8099 285.297 36.9657L283.999 38.4874C284.781 39.1537 285.278 39.8519 285.547 40.5748L287.422 39.8784ZM285.297 36.9657C284.309 36.1226 282.961 35.3467 281.298 34.6222L280.499 36.4559C282.065 37.1376 283.217 37.8201 283.999 38.4874L285.297 36.9657ZM281.316 34.6302C279.672 33.8759 277.595 33.1188 275.097 32.3561L274.513 34.2689C276.962 35.0166 278.948 35.7439 280.481 36.4479L281.316 34.6302ZM275.099 32.3567C272.423 31.5336 269.961 30.6225 267.71 29.6248L266.9 31.4533C269.232 32.4869 271.769 33.4248 274.511 34.2683L275.099 32.3567ZM267.722 29.6305C265.52 28.6178 263.612 27.4608 261.992 26.1644L260.742 27.7262C262.507 29.1381 264.558 30.377 266.887 31.4476L267.722 29.6305ZM261.999 26.1703C260.401 24.8669 259.175 23.3932 258.306 21.7509L256.538 22.6866C257.544 24.5859 258.948 26.2633 260.735 27.7203L261.999 26.1703ZM258.308 21.7562C257.456 20.123 257.016 18.2158 257.016 16.0078H255.016C255.016 18.4873 255.512 20.7208 256.535 22.6813L258.308 21.7562ZM257.016 16.0078C257.016 13.8332 257.466 11.8807 258.353 10.1318L256.569 9.22759C255.528 11.2807 255.016 13.547 255.016 16.0078H257.016ZM258.348 10.1414C259.266 8.37712 260.562 6.84741 262.25 5.55087L261.031 3.96476C259.126 5.42863 257.635 7.18018 256.574 9.21795L258.348 10.1414ZM262.251 5.54959C263.968 4.22553 266.005 3.19637 268.378 2.47205L267.794 0.559196C265.219 1.34529 262.959 2.4776 261.03 3.96603L262.251 5.54959ZM268.387 2.46921C270.75 1.72305 273.381 1.34375 276.289 1.34375V-0.65625C273.208 -0.65625 270.37 -0.254295 267.785 0.562042L268.387 2.46921ZM276.289 1.34375C280.385 1.34375 283.855 2.10212 286.731 3.57732L287.644 1.79768C284.427 0.147877 280.63 -0.65625 276.289 -0.65625V1.34375ZM286.734 3.57888C289.664 5.06839 291.876 7.0469 293.409 9.50581L295.106 8.44732C293.359 5.64581 290.857 3.43161 287.641 1.79612L286.734 3.57888ZM293.413 9.51181C294.976 11.9785 295.758 14.6959 295.758 17.6875H297.758C297.758 14.325 296.873 11.235 295.103 8.44131L293.413 9.51181ZM296.758 16.6875H287.031V18.6875H296.758V16.6875ZM288.031 17.6875C288.031 15.665 287.594 13.8377 286.691 12.2355L284.949 13.2176C285.661 14.48 286.031 15.96 286.031 17.6875H288.031ZM286.702 12.2543C285.816 10.6001 284.461 9.31706 282.685 8.40044L281.768 10.1777C283.221 10.9277 284.263 11.9363 284.939 13.1988L286.702 12.2543ZM282.691 8.40351C280.917 7.47265 278.725 7.03906 276.172 7.03906V9.03906C278.514 9.03906 280.359 9.4388 281.762 10.1746L282.691 8.40351ZM276.172 7.03906C273.761 7.03906 271.681 7.40369 269.974 8.18444L270.807 10.0031C272.174 9.37756 273.948 9.03906 276.172 9.03906V7.03906ZM269.974 8.18444C268.296 8.9526 266.985 10.0201 266.107 11.412L267.799 12.4786C268.432 11.4747 269.412 10.6411 270.807 10.0031L269.974 8.18444ZM266.107 11.412C265.245 12.7803 264.82 14.3218 264.82 16.0078H266.82C266.82 14.673 267.151 13.5061 267.799 12.4786L266.107 11.412ZM264.82 16.0078C264.82 17.237 265.107 18.3829 265.69 19.4253L267.435 18.4497C267.028 17.7213 266.82 16.9141 266.82 16.0078H264.82ZM265.696 19.4365C266.275 20.4423 267.135 21.3467 268.231 22.1618L269.425 20.5569C268.49 19.8616 267.84 19.1514 267.429 18.4385L265.696 19.4365ZM268.245 22.1717C269.337 22.9556 270.683 23.6795 272.266 24.3504L273.046 22.5089C271.557 21.8778 270.351 21.2214 269.411 20.5471L268.245 22.1717ZM272.266 24.3504C273.849 25.021 275.698 25.6588 277.81 26.2658L278.362 24.3436C276.307 23.7527 274.537 23.1404 273.046 22.5089L272.266 24.3504ZM277.801 26.2632C280.912 27.1888 283.606 28.2118 285.889 29.3281L286.767 27.5313C284.363 26.3559 281.562 25.2956 278.371 24.3462L277.801 26.2632ZM285.897 29.332C288.171 30.4184 290.036 31.6426 291.512 32.995L292.863 31.5207C291.214 30.0084 289.173 28.6806 286.759 27.5274L285.897 29.332ZM291.512 32.995C292.977 34.3381 294.062 35.8508 294.784 37.5345L296.622 36.7467C295.781 34.7846 294.523 33.0421 292.863 31.5207L291.512 32.995ZM294.786 37.5394C295.504 39.1909 295.875 41.096 295.875 43.2734H297.875C297.875 40.8676 297.465 38.6841 296.62 36.7419L294.786 37.5394ZM295.875 43.2734C295.875 45.5316 295.422 47.5373 294.535 49.3106L296.324 50.205C297.365 48.1242 297.875 45.8069 297.875 43.2734H295.875ZM294.538 49.3057C293.647 51.0631 292.369 52.5745 290.687 53.842L291.891 55.4392C293.803 53.9985 295.285 52.2546 296.322 50.2099L294.538 49.3057ZM290.689 53.8406C289.03 55.0851 287.007 56.0652 284.603 56.7666L285.163 58.6866C287.758 57.9296 290.007 56.8524 291.889 55.4406L290.689 53.8406ZM284.609 56.7647C282.239 57.4384 279.573 57.7812 276.602 57.7812V59.7812C279.724 59.7812 282.579 59.421 285.156 58.6885L284.609 56.7647ZM276.602 57.7812C273.957 57.7812 271.351 57.4288 268.78 56.7232L268.251 58.6518C270.993 59.4045 273.777 59.7812 276.602 59.7812V57.7812ZM268.783 56.7238C266.255 56.023 263.961 54.962 261.894 53.5429L260.762 55.1915C263.018 56.7411 265.516 57.8936 268.248 58.6512L268.783 56.7238ZM261.901 53.5475C259.858 52.12 258.242 50.3549 257.041 48.2471L255.303 49.2372C256.654 51.6087 258.475 53.5936 260.755 55.1869L261.901 53.5475ZM257.043 48.2514C255.864 46.1583 255.258 43.6895 255.258 40.8125H253.258C253.258 43.9772 253.927 46.7948 255.301 49.2329L257.043 48.2514ZM254.258 41.8125H264.062V39.8125H254.258V41.8125ZM263.062 40.8125C263.062 42.7707 263.393 44.5023 264.098 45.9718L265.902 45.1063C265.357 43.9716 265.062 42.5522 265.062 40.8125H263.062ZM264.106 45.9863C264.826 47.4276 265.828 48.6207 267.107 49.5509L268.283 47.9334C267.271 47.197 266.476 46.2547 265.894 45.0919L264.106 45.9863ZM267.119 49.5597C268.374 50.4438 269.815 51.0898 271.429 51.5072L271.93 49.5709C270.523 49.2071 269.308 48.6552 268.271 47.9247L267.119 49.5597ZM271.433 51.5082C273.058 51.9213 274.782 52.125 276.602 52.125V50.125C274.932 50.125 273.374 49.9381 271.926 49.5699L271.433 51.5082ZM276.602 52.125C278.98 52.125 281.037 51.7881 282.734 51.0692L281.954 49.2277C280.577 49.8108 278.806 50.125 276.602 50.125V52.125ZM282.728 51.0715C284.436 50.3601 285.78 49.3356 286.691 47.9688L285.027 46.8594C284.376 47.8363 283.377 48.6347 281.959 49.2254L282.728 51.0715ZM286.691 47.9688C287.592 46.6177 288.031 45.0667 288.031 43.3516H286.031C286.031 44.7093 285.689 45.8667 285.027 46.8594L286.691 47.9688ZM342.922 40.2266L341.984 40.5748L341.989 40.5864L341.993 40.598L342.922 40.2266ZM341.086 37.7266L340.437 38.4874L341.086 37.7266ZM337.336 35.5391L336.919 36.4479L336.928 36.452L336.937 36.4559L337.336 35.5391ZM331.242 33.3125L330.948 34.2683L330.95 34.2689L331.242 33.3125ZM323.742 30.5391L323.324 31.4477L323.337 31.4533L323.742 30.5391ZM317.805 26.9453L317.173 27.7204L317.18 27.7262L317.805 26.9453ZM313.859 22.2188L312.973 22.6813L312.976 22.6866L313.859 22.2188ZM313.898 9.67969L313.011 9.21793L313.006 9.22759L313.898 9.67969ZM318.078 4.75781L318.687 5.55087L318.689 5.54959L318.078 4.75781ZM324.523 1.51562L324.815 2.4721L324.825 2.46921L324.523 1.51562ZM343.625 2.6875L343.169 3.57732L343.172 3.57888L343.625 2.6875ZM350.695 8.97656L349.847 9.50582L349.851 9.51181L350.695 8.97656ZM353.195 17.6875V18.6875H354.195V17.6875H353.195ZM343.469 17.6875H342.469V18.6875H343.469V17.6875ZM342.258 12.7266L341.376 13.1988L341.381 13.2082L341.387 13.2176L342.258 12.7266ZM338.664 9.28906L338.199 10.1746L338.205 10.1777L338.664 9.28906ZM326.828 9.09375L326.412 8.18444L326.828 9.09375ZM323 18.9375L322.127 19.4254L322.133 19.4365L323 18.9375ZM325.266 21.3594L324.669 22.1618L324.676 22.1668L324.682 22.1717L325.266 21.3594ZM329.094 23.4297L328.704 24.3504L329.094 23.4297ZM334.523 25.3047L334.809 24.3462L334.8 24.3436L334.523 25.3047ZM342.766 28.4297L342.326 29.3281L342.335 29.332L342.766 28.4297ZM352.141 37.1406L351.221 37.5345L351.224 37.5394L352.141 37.1406ZM351.867 49.7578L352.759 50.2099L352.762 50.205L351.867 49.7578ZM347.727 54.6406L348.327 55.4406L348.328 55.4392L347.727 54.6406ZM341.32 57.7266L341.594 58.6885L341.6 58.6866L341.32 57.7266ZM324.953 57.6875L324.686 58.6512L324.688 58.6518L324.953 57.6875ZM317.766 54.3672L317.193 55.1869L317.2 55.1915L317.766 54.3672ZM312.609 48.7422L311.738 49.2329L311.741 49.2372L312.609 48.7422ZM310.695 40.8125V39.8125H309.695V40.8125H310.695ZM320.5 40.8125H321.5V39.8125H320.5V40.8125ZM321.438 45.5391L320.536 45.9718L320.539 45.9791L320.543 45.9863L321.438 45.5391ZM324.133 48.7422L323.545 49.5509L323.551 49.5553L323.557 49.5597L324.133 48.7422ZM328.117 50.5391L327.867 51.5072L327.871 51.5082L328.117 50.5391ZM338.781 50.1484L338.397 49.2253L338.391 49.2277L338.781 50.1484ZM344.469 43.3516C344.469 42.0766 344.27 40.9052 343.85 39.8552L341.993 40.598C342.303 41.3708 342.469 42.2828 342.469 43.3516H344.469ZM343.859 39.8784C343.451 38.7783 342.725 37.8099 341.735 36.9657L340.437 38.4874C341.218 39.1537 341.716 39.8519 341.984 40.5748L343.859 39.8784ZM341.735 36.9657C340.746 36.1226 339.399 35.3467 337.735 34.6222L336.937 36.4559C338.502 37.1376 339.655 37.8201 340.437 38.4874L341.735 36.9657ZM337.753 34.6302C336.11 33.8759 334.033 33.1188 331.534 32.3561L330.95 34.2689C333.4 35.0166 335.385 35.7439 336.919 36.4479L337.753 34.6302ZM331.536 32.3567C328.861 31.5336 326.399 30.6225 324.147 29.6248L323.337 31.4533C325.669 32.4869 328.207 33.4248 330.948 34.2683L331.536 32.3567ZM324.16 29.6305C321.957 28.6178 320.05 27.4608 318.429 26.1644L317.18 27.7262C318.945 29.1381 320.996 30.377 323.324 31.4476L324.16 29.6305ZM318.437 26.1703C316.838 24.8669 315.613 23.3932 314.743 21.7509L312.976 22.6866C313.981 24.5859 315.386 26.2633 317.173 27.7203L318.437 26.1703ZM314.746 21.7562C313.894 20.123 313.453 18.2158 313.453 16.0078H311.453C311.453 18.4873 311.95 20.7208 312.973 22.6813L314.746 21.7562ZM313.453 16.0078C313.453 13.8332 313.904 11.8807 314.79 10.1318L313.006 9.22759C311.966 11.2807 311.453 13.547 311.453 16.0078H313.453ZM314.785 10.1414C315.704 8.37712 316.999 6.84741 318.687 5.55087L317.469 3.96476C315.563 5.42863 314.072 7.18018 313.011 9.21795L314.785 10.1414ZM318.689 5.54959C320.405 4.22553 322.443 3.19637 324.815 2.47205L324.231 0.559196C321.656 1.34529 319.397 2.4776 317.467 3.96603L318.689 5.54959ZM324.825 2.46921C327.187 1.72305 329.819 1.34375 332.727 1.34375V-0.65625C329.645 -0.65625 326.807 -0.254295 324.222 0.562042L324.825 2.46921ZM332.727 1.34375C336.823 1.34375 340.292 2.10212 343.169 3.57732L344.081 1.79768C340.864 0.147877 337.068 -0.65625 332.727 -0.65625V1.34375ZM343.172 3.57888C346.101 5.06839 348.313 7.0469 349.847 9.50581L351.544 8.44732C349.796 5.64581 347.295 3.43161 344.078 1.79612L343.172 3.57888ZM349.851 9.51181C351.414 11.9785 352.195 14.6959 352.195 17.6875H354.195C354.195 14.325 353.31 11.235 351.54 8.44131L349.851 9.51181ZM353.195 16.6875H343.469V18.6875H353.195V16.6875ZM344.469 17.6875C344.469 15.665 344.032 13.8377 343.129 12.2355L341.387 13.2176C342.098 14.48 342.469 15.96 342.469 17.6875H344.469ZM343.139 12.2543C342.253 10.6001 340.899 9.31706 339.123 8.40044L338.205 10.1777C339.659 10.9277 340.7 11.9363 341.376 13.1988L343.139 12.2543ZM339.129 8.40351C337.354 7.47265 335.163 7.03906 332.609 7.03906V9.03906C334.952 9.03906 336.797 9.4388 338.2 10.1746L339.129 8.40351ZM332.609 7.03906C330.198 7.03906 328.118 7.40369 326.412 8.18444L327.244 10.0031C328.611 9.37756 330.385 9.03906 332.609 9.03906V7.03906ZM326.412 8.18444C324.733 8.9526 323.422 10.0201 322.545 11.412L324.237 12.4786C324.869 11.4747 325.85 10.6411 327.244 10.0031L326.412 8.18444ZM322.545 11.412C321.682 12.7803 321.258 14.3218 321.258 16.0078H323.258C323.258 14.673 323.589 13.5061 324.237 12.4786L322.545 11.412ZM321.258 16.0078C321.258 17.237 321.545 18.3829 322.127 19.4253L323.873 18.4497C323.466 17.7213 323.258 16.9141 323.258 16.0078H321.258ZM322.133 19.4365C322.712 20.4423 323.573 21.3467 324.669 22.1618L325.862 20.5569C324.927 19.8616 324.277 19.1514 323.867 18.4385L322.133 19.4365ZM324.682 22.1717C325.774 22.9556 327.12 23.6795 328.704 24.3504L329.484 22.5089C327.994 21.8778 326.788 21.2214 325.849 20.5471L324.682 22.1717ZM328.704 24.3504C330.286 25.021 332.136 25.6588 334.247 26.2658L334.8 24.3436C332.744 23.7527 330.974 23.1404 329.484 22.5089L328.704 24.3504ZM334.238 26.2632C337.349 27.1888 340.043 28.2118 342.326 29.3281L343.205 27.5313C340.801 26.3559 338 25.2956 334.809 24.3462L334.238 26.2632ZM342.335 29.332C344.608 30.4184 346.474 31.6426 347.949 32.995L349.301 31.5207C347.651 30.0084 345.61 28.6806 343.197 27.5274L342.335 29.332ZM347.949 32.995C349.415 34.3381 350.5 35.8508 351.221 37.5345L353.06 36.7467C352.219 34.7846 350.96 33.0421 349.301 31.5207L347.949 32.995ZM351.224 37.5394C351.942 39.1909 352.312 41.096 352.312 43.2734H354.312C354.312 40.8676 353.902 38.6841 353.058 36.7419L351.224 37.5394ZM352.312 43.2734C352.312 45.5316 351.859 47.5373 350.973 49.3106L352.762 50.205C353.802 48.1242 354.312 45.8069 354.312 43.2734H352.312ZM350.975 49.3057C350.085 51.0631 348.807 52.5745 347.125 53.842L348.328 55.4392C350.24 53.9985 351.723 52.2546 352.759 50.2099L350.975 49.3057ZM347.127 53.8406C345.467 55.0851 343.445 56.0652 341.04 56.7666L341.6 58.6866C344.196 57.9296 346.444 56.8524 348.327 55.4406L347.127 53.8406ZM341.047 56.7647C338.677 57.4384 336.01 57.7812 333.039 57.7812V59.7812C336.162 59.7812 339.016 59.421 341.594 58.6885L341.047 56.7647ZM333.039 57.7812C330.395 57.7812 327.788 57.4288 325.218 56.7232L324.688 58.6518C327.43 59.4045 330.215 59.7812 333.039 59.7812V57.7812ZM325.22 56.7238C322.692 56.023 320.398 54.962 318.332 53.5429L317.2 55.1915C319.456 56.7411 321.953 57.8936 324.686 58.6512L325.22 56.7238ZM318.338 53.5475C316.296 52.12 314.679 50.3549 313.478 48.2471L311.741 49.2372C313.092 51.6087 314.913 53.5936 317.193 55.1869L318.338 53.5475ZM313.481 48.2514C312.302 46.1583 311.695 43.6895 311.695 40.8125H309.695C309.695 43.9772 310.365 46.7948 311.738 49.2329L313.481 48.2514ZM310.695 41.8125H320.5V39.8125H310.695V41.8125ZM319.5 40.8125C319.5 42.7707 319.831 44.5023 320.536 45.9718L322.339 45.1063C321.794 43.9716 321.5 42.5522 321.5 40.8125H319.5ZM320.543 45.9863C321.264 47.4276 322.266 48.6207 323.545 49.5509L324.721 47.9334C323.708 47.197 322.913 46.2547 322.332 45.0919L320.543 45.9863ZM323.557 49.5597C324.812 50.4438 326.253 51.0898 327.867 51.5072L328.368 49.5709C326.961 49.2071 325.746 48.6552 324.709 47.9247L323.557 49.5597ZM327.871 51.5082C329.495 51.9213 331.219 52.125 333.039 52.125V50.125C331.369 50.125 329.812 49.9381 328.364 49.5699L327.871 51.5082ZM333.039 52.125C335.418 52.125 337.475 51.7881 339.171 51.0692L338.391 49.2277C337.015 49.8108 335.244 50.125 333.039 50.125V52.125ZM339.166 51.0715C340.873 50.3601 342.218 49.3356 343.129 47.9688L341.465 46.8594C340.814 47.8363 339.814 48.6347 338.397 49.2254L339.166 51.0715ZM343.129 47.9688C344.03 46.6177 344.469 45.0667 344.469 43.3516H342.469C342.469 44.7093 342.127 45.8667 341.465 46.8594L343.129 47.9688ZM387.992 29.9531H388.992V28.9531H387.992V29.9531ZM387.992 37.4531V38.4531H388.992V37.4531H387.992ZM367.328 37.4531H366.328V38.4531H367.328V37.4531ZM367.328 29.9531V28.9531H366.328V29.9531H367.328ZM386.992 29.9531V37.4531H388.992V29.9531H386.992ZM387.992 36.4531H367.328V38.4531H387.992V36.4531ZM368.328 37.4531V29.9531H366.328V37.4531H368.328ZM367.328 30.9531H387.992V28.9531H367.328V30.9531ZM427.32 8.70312L428.266 9.029L428.305 8.91528L428.316 8.79551L427.32 8.70312ZM410.328 58V59H411.041L411.274 58.3259L410.328 58ZM400.055 58L399.119 57.6478L398.61 59H400.055V58ZM421.461 1.125V0.125H420.769L420.525 0.772751L421.461 1.125ZM428.023 1.125L429.019 1.21739L429.121 0.125H428.023V1.125ZM441.539 58L440.594 58.3265L440.827 59H441.539V58ZM424.508 8.70312L423.513 8.8006L423.524 8.91809L423.563 9.02967L424.508 8.70312ZM423.766 1.125V0.125H422.663L422.77 1.22247L423.766 1.125ZM430.367 1.125L431.303 0.771626L431.058 0.125H430.367V1.125ZM451.852 58V59H453.298L452.787 57.6466L451.852 58ZM440.719 36.9062H441.719V35.9062H440.719V36.9062ZM440.719 44.6797V45.6797H441.719V44.6797H440.719ZM409.781 44.6797H408.781V45.6797H409.781V44.6797ZM409.781 36.9062V35.9062H408.781V36.9062H409.781ZM426.375 8.37725L409.383 57.6741L411.274 58.3259L428.266 9.029L426.375 8.37725ZM410.328 57H400.055V59H410.328V57ZM400.991 58.3522L422.397 1.47725L420.525 0.772751L399.119 57.6478L400.991 58.3522ZM421.461 2.125H428.023V0.125H421.461V2.125ZM427.028 1.03261L426.325 8.61074L428.316 8.79551L429.019 1.21739L427.028 1.03261ZM442.484 57.6735L425.453 8.37658L423.563 9.02967L440.594 58.3265L442.484 57.6735ZM425.503 8.60565L424.761 1.02753L422.77 1.22247L423.513 8.8006L425.503 8.60565ZM423.766 2.125H430.367V0.125H423.766V2.125ZM429.432 1.47837L450.916 58.3534L452.787 57.6466L431.303 0.771626L429.432 1.47837ZM451.852 57H441.539V59H451.852V57ZM439.719 36.9062V44.6797H441.719V36.9062H439.719ZM440.719 43.6797H409.781V45.6797H440.719V43.6797ZM410.781 44.6797V36.9062H408.781V44.6797H410.781ZM409.781 37.9062H440.719V35.9062H409.781V37.9062ZM476.688 1.125H477.688V0.125H476.688V1.125ZM476.688 58V59H477.688V58H476.688ZM466.883 58H465.883V59H466.883V58ZM466.883 1.125V0.125H465.883V1.125H466.883ZM475.688 1.125V58H477.688V1.125H475.688ZM476.688 57H466.883V59H476.688V57ZM467.883 58V1.125H465.883V58H467.883ZM466.883 2.125H476.688V0.125H466.883V2.125Z" fill="#146C94"/>
</svg>
