<svg width="78" height="45" viewBox="0 0 78 45" fill="none" xmlns="http://www.w3.org/2000/svg">
<path d="M11.5827 40.509C11.799 40.457 11.9322 40.2394 11.8802 40.0231C11.8282 39.8068 11.6107 39.6736 11.3944 39.7256C11.1781 39.7776 11.0448 39.9951 11.0969 40.2115C11.1489 40.4278 11.3664 40.561 11.5827 40.509Z" fill="#00CECB"/>
<path d="M11.2067 25.4351C12.3557 25.1588 13.0582 23.9679 12.7744 22.7876C12.5032 21.6595 11.3177 20.9336 10.1897 21.2048C9.00415 21.4899 8.26797 22.6557 8.54421 23.8047C8.82923 24.9902 10.0212 25.7201 11.2067 25.4351ZM10.378 21.9882C11.0726 21.8212 11.8241 22.2814 11.9911 22.976C12.1681 23.7123 11.7234 24.4822 11.0184 24.6517C10.2559 24.835 9.5109 24.3788 9.32758 23.6163C9.15807 22.9113 9.63641 22.1665 10.378 21.9882Z" fill="#00CECB"/>
<path d="M7.14306 37.7371C6.99738 37.5677 6.74353 37.5458 6.57415 37.6915C6.40478 37.8372 6.38294 38.0911 6.52863 38.2604C7.47862 39.3855 8.43559 40.1719 10.027 40.3804C10.0778 40.3848 10.1273 40.3839 10.1743 40.3726C10.331 40.335 10.4598 40.2045 10.4796 40.034C10.509 39.8115 10.3505 39.6121 10.1332 39.5815C8.78773 39.4078 7.99377 38.7479 7.14306 37.7371Z" fill="#00CECB"/>
<path d="M25.4274 38.4898C25.0946 38.5532 24.1201 38.7046 23.641 38.6651C23.6358 38.6664 23.6241 38.6637 23.6188 38.6649C22.6628 38.6407 20.8209 37.8958 20.8027 37.8891C20.6742 37.8371 20.5242 37.8566 20.4114 37.939C20.3838 37.9622 17.3779 40.1654 15.6835 40.838C15.6782 40.8392 15.6782 40.8392 15.673 40.8405C14.5902 41.2997 13.4464 41.5747 12.2732 41.6579C12.2679 41.6592 12.2679 41.6592 12.2627 41.6604C11.2952 41.7494 10.3546 41.6054 9.56526 41.4471C8.49111 41.2303 7.48069 41.0258 6.71456 40.4586C6.10682 39.9529 5.77957 39.2581 5.43832 38.5281C5.39232 38.4287 5.34506 38.324 5.29384 38.2259C4.33355 35.9321 3.88404 34.0624 3.87227 32.3361C3.89959 31.186 4.2014 29.9367 4.77226 28.6118C5.12375 27.7759 6.074 26.4205 6.50539 25.8251C6.94441 26.5482 7.5618 27.14 8.28378 27.5465L7.85873 28.3061C7.76875 28.4603 7.79954 28.6573 7.91825 28.7835C8.16091 29.0345 8.83812 29.7832 9.04889 30.2463C9.05015 30.2515 9.0514 30.2567 9.05788 30.2607C9.36649 30.855 9.63922 32.1042 9.69909 32.3992C9.36692 32.9707 9.11455 33.5065 9.09597 33.5441C9.00037 33.7439 9.08675 33.9883 9.29049 34.0774C9.37741 34.1172 9.46851 34.1285 9.55729 34.1071C9.67218 34.0795 9.77452 33.9997 9.83026 33.8868C10.0242 33.4756 10.6302 32.2968 11.0892 31.8163C11.7725 31.1659 12.5481 30.6922 13.3333 30.4426C14.4306 30.1125 15.7644 30.2835 16.8089 30.4688C17.8375 30.68 19.729 31.5622 19.7524 31.5676C19.9457 31.6592 20.1757 31.5818 20.279 31.3913C20.287 31.3783 21.0673 29.9366 21.567 29.2806C21.9943 28.852 23.0513 28.0785 23.0605 28.0708C23.2389 27.9395 23.2776 27.6871 23.1464 27.5088C23.0151 27.3304 22.7627 27.2917 22.5843 27.4229C22.5371 27.4564 21.4394 28.2672 20.9779 28.7373C20.9699 28.7502 20.9555 28.7592 20.9476 28.7722C20.5548 29.2754 20.0241 30.193 19.75 30.6843C19.131 30.4077 17.8203 29.85 16.9672 29.6794C16.9619 29.6807 16.9607 29.6755 16.9555 29.6767C15.8251 29.4789 14.3664 29.2938 13.1044 29.6745L13.0992 29.6758C12.1912 29.9659 11.3043 30.5051 10.5316 31.2433C10.5264 31.2446 10.5224 31.251 10.5237 31.2563C10.4566 31.3221 10.3921 31.3984 10.3249 31.4864C10.1941 30.9654 10.0006 30.3213 9.78416 29.9038C9.5554 29.4119 9.01258 28.7855 8.71076 28.4493L9.02455 27.8932C9.89713 28.2138 10.8709 28.289 11.8423 28.0555C13.0853 27.7566 14.1411 26.978 14.8181 25.865C15.494 24.7468 15.6986 23.438 15.3935 22.169C15.0959 20.9312 14.3225 19.8742 13.2147 19.1959C12.1069 18.5175 10.8139 18.3091 9.57612 18.6067C8.30705 18.9118 7.23435 19.689 6.54557 20.7993C5.86201 21.9083 5.64839 23.2027 5.94722 24.4456C5.99494 24.6441 6.05184 24.8348 6.12441 25.0217C6.11522 25.0295 6.10729 25.0424 6.09413 25.0567C6.03086 25.1382 4.53809 27.1323 4.04154 28.3068C3.42684 29.7252 3.10064 31.0798 3.07628 32.3341C3.07754 32.3394 3.07754 32.3394 3.07357 32.3458C3.08434 34.1829 3.55896 36.157 4.56129 38.5567C4.56254 38.5619 4.56505 38.5723 4.57153 38.5763C4.61879 38.6809 4.67001 38.7791 4.71727 38.8838C5.088 39.6675 5.46501 40.4773 6.22281 41.1017C6.22929 41.1057 6.23577 41.1096 6.23702 41.1148C7.15195 41.7953 8.30152 42.0272 9.42122 42.2497C10.2678 42.4163 11.2787 42.5765 12.3479 42.4741C12.9775 42.4277 13.6011 42.333 14.2069 42.1874C14.818 42.0405 15.4112 41.8426 15.9932 41.5977C17.5569 40.9787 20.0258 39.2305 20.7182 38.7325C21.2544 38.9406 22.6932 39.4565 23.5945 39.4829C24.2819 39.5386 25.5295 39.3049 25.5829 39.2976C25.8048 39.2553 25.9474 39.0442 25.9064 38.8276C25.8551 38.5913 25.644 38.4487 25.4274 38.4898ZM9.75025 19.3769C11.8706 18.8671 14.0926 20.2278 14.6024 22.3481C15.1297 24.5416 13.8031 26.7443 11.6462 27.2629C9.45279 27.7903 7.24375 26.4376 6.71639 24.2441C6.19781 22.0872 7.5568 19.9043 9.75025 19.3769Z" fill="#00CECB"/>
<path d="M65.448 40.509C65.2317 40.457 65.0985 40.2394 65.1505 40.0231C65.2025 39.8068 65.4201 39.6736 65.6364 39.7256C65.8527 39.7776 65.9859 39.9951 65.9339 40.2115C65.8819 40.4278 65.6644 40.561 65.448 40.509Z" fill="#00CECB"/>
<path d="M65.824 25.4351C64.6751 25.1588 63.9726 23.9679 64.2563 22.7876C64.5275 21.6595 65.713 20.9336 66.8411 21.2048C68.0266 21.4899 68.7628 22.6557 68.4866 23.8047C68.2015 24.9902 67.0096 25.7201 65.824 25.4351ZM66.6528 21.9882C65.9582 21.8212 65.2067 22.2814 65.0397 22.976C64.8627 23.7123 65.3073 24.4822 66.0124 24.6517C66.7749 24.835 67.5199 24.3788 67.7032 23.6163C67.8727 22.9113 67.3944 22.1665 66.6528 21.9882Z" fill="#00CECB"/>
<path d="M69.8877 37.7371C70.0334 37.5677 70.2872 37.5458 70.4566 37.6915C70.626 37.8372 70.6478 38.0911 70.5021 38.2604C69.5521 39.3855 68.5952 40.1719 67.0037 40.3804C66.953 40.3848 66.9035 40.3839 66.8565 40.3726C66.6998 40.335 66.5709 40.2045 66.5512 40.034C66.5218 39.8115 66.6802 39.6121 66.8975 39.5815C68.243 39.4078 69.037 38.7479 69.8877 37.7371Z" fill="#00CECB"/>
<path d="M51.6034 38.4898C51.9361 38.5532 52.9107 38.7046 53.3898 38.6651C53.395 38.6664 53.4067 38.6637 53.4119 38.6649C54.3679 38.6407 56.2099 37.8958 56.2281 37.8891C56.3566 37.8371 56.5066 37.8566 56.6193 37.939C56.6469 37.9622 59.6528 40.1654 61.3473 40.838C61.3525 40.8392 61.3525 40.8392 61.3578 40.8405C62.4406 41.2997 63.5843 41.5747 64.7576 41.6579C64.7628 41.6592 64.7628 41.6592 64.768 41.6604C65.7355 41.7494 66.6761 41.6054 67.4655 41.4471C68.5397 41.2303 69.5501 41.0258 70.3162 40.4586C70.9239 39.9529 71.2512 39.2581 71.5924 38.5281C71.6384 38.4287 71.6857 38.324 71.7369 38.2259C72.6972 35.9321 73.1467 34.0624 73.1585 32.3361C73.1312 31.186 72.8294 29.9367 72.2585 28.6118C71.907 27.7759 70.9568 26.4205 70.5254 25.8251C70.0864 26.5482 69.469 27.14 68.747 27.5465L69.172 28.3061C69.262 28.4603 69.2312 28.6573 69.1125 28.7835C68.8699 29.0345 68.1926 29.7832 67.9819 30.2463C67.9806 30.2515 67.9794 30.2567 67.9729 30.2607C67.6643 30.855 67.3915 32.1042 67.3317 32.3992C67.6638 32.9707 67.9162 33.5065 67.9348 33.5441C68.0304 33.7439 67.944 33.9883 67.7403 34.0774C67.6533 34.1172 67.5623 34.1285 67.4735 34.1071C67.3586 34.0795 67.2562 33.9997 67.2005 33.8868C67.0066 33.4756 66.4006 32.2968 65.9415 31.8163C65.2582 31.1659 64.4827 30.6922 63.6975 30.4426C62.6001 30.1125 61.2663 30.2835 60.2218 30.4688C59.1932 30.68 57.3017 31.5622 57.2783 31.5676C57.0851 31.6592 56.8551 31.5818 56.7517 31.3913C56.7438 31.3783 55.9634 29.9366 55.4637 29.2806C55.0365 28.852 53.9794 28.0785 53.9702 28.0708C53.7919 27.9395 53.7531 27.6871 53.8844 27.5088C54.0157 27.3304 54.2681 27.2917 54.4464 27.4229C54.4936 27.4564 55.5914 28.2672 56.0529 28.7373C56.0608 28.7502 56.0753 28.7592 56.0832 28.7722C56.476 29.2754 57.0067 30.193 57.2808 30.6843C57.8997 30.4077 59.2105 29.85 60.0636 29.6794C60.0688 29.6807 60.0701 29.6755 60.0753 29.6767C61.2056 29.4789 62.6644 29.2938 63.9263 29.6745L63.9315 29.6758C64.8396 29.9659 65.7265 30.5051 66.4992 31.2433C66.5044 31.2446 66.5084 31.251 66.5071 31.2563C66.5741 31.3221 66.6387 31.3984 66.7059 31.4864C66.8367 30.9654 67.0302 30.3213 67.2466 29.9038C67.4754 29.4119 68.0182 28.7855 68.32 28.4493L68.0062 27.8932C67.1336 28.2138 66.1598 28.289 65.1884 28.0555C63.9455 27.7566 62.8897 26.978 62.2126 25.865C61.5368 24.7468 61.3322 23.438 61.6373 22.169C61.9349 20.9312 62.7083 19.8742 63.8161 19.1959C64.9238 18.5175 66.2169 18.3091 67.4546 18.6067C68.7237 18.9118 69.7964 19.689 70.4852 20.7993C71.1688 21.9083 71.3824 23.2027 71.0835 24.4456C71.0358 24.6441 70.9789 24.8348 70.9063 25.0217C70.9155 25.0295 70.9235 25.0424 70.9366 25.0567C70.9999 25.1382 72.4927 27.1323 72.9892 28.3068C73.6039 29.7252 73.9301 31.0798 73.9545 32.3341C73.9532 32.3394 73.9532 32.3394 73.9572 32.3458C73.9464 34.1829 73.4718 36.157 72.4695 38.5567C72.4682 38.5619 72.4657 38.5723 72.4592 38.5763C72.412 38.6809 72.3607 38.7791 72.3135 38.8838C71.9428 39.6675 71.5657 40.4773 70.808 41.1017C70.8015 41.1057 70.795 41.1096 70.7937 41.1148C69.8788 41.7953 68.7292 42.0272 67.6095 42.2497C66.7629 42.4163 65.7521 42.5765 64.6829 42.4741C64.0532 42.4277 63.4296 42.333 62.8238 42.1874C62.2128 42.0405 61.6195 41.8426 61.0376 41.5977C59.4739 40.9787 57.0049 39.2305 56.3125 38.7325C55.7764 38.9406 54.3375 39.4565 53.4362 39.4829C52.7489 39.5386 51.5013 39.3049 51.4478 39.2976C51.226 39.2553 51.0833 39.0442 51.1244 38.8276C51.1757 38.5913 51.3867 38.4487 51.6034 38.4898ZM67.2805 19.3769C65.1602 18.8671 62.9382 20.2278 62.4284 22.3481C61.901 24.5416 63.2276 26.7443 65.3845 27.2629C67.578 27.7903 69.787 26.4376 70.3144 24.2441C70.8329 22.0872 69.474 19.9043 67.2805 19.3769Z" fill="#00CECB"/>
<path d="M29.5506 1.83384C31.1277 0.639465 33.053 -0.00472468 35.0312 2.60895e-05C35.5862 2.60895e-05 36.0279 0.289088 36.2846 0.487963C36.5714 0.714588 36.8396 1.00365 37.0801 1.29271C37.2507 1.49983 37.3439 1.7598 37.3438 2.02809V10.4063H34.8347C34.5619 9.6348 34.0252 8.9846 33.3194 8.57057C32.6137 8.15654 31.7842 8.00536 30.9777 8.14373C30.1713 8.28209 29.4397 8.70112 28.9123 9.32673C28.3848 9.95234 28.0956 10.7443 28.0956 11.5625C28.0956 12.3808 28.3848 13.1727 28.9123 13.7983C29.4397 14.4239 30.1713 14.8429 30.9777 14.9813C31.7842 15.1197 32.6137 14.9685 33.3194 14.5545C34.0252 14.1404 34.5619 13.4902 34.8347 12.7188H37.3438V34.4909C37.3439 34.6621 37.306 34.8312 37.2328 34.986C37.1596 35.1408 37.053 35.2773 36.9206 35.3859C35.8522 36.26 34.4231 37 32.7188 37C29.9761 37 27.9342 35.6171 26.6137 33.9637C25.6651 32.7856 25.0153 31.3956 24.7198 29.9122C23.8214 29.6726 22.9883 29.234 22.2824 28.6288C21.0059 27.5349 20 25.7613 20 23.125C20 21.8369 20.0856 20.6738 20.2775 19.6563H27.5156C28.9864 19.6563 30.1981 20.7547 30.3831 22.1746C29.6141 22.4529 28.9681 22.994 28.5593 23.7023C28.1505 24.4106 28.0051 25.2406 28.1487 26.0457C28.2924 26.8508 28.716 27.5793 29.3446 28.1025C29.9732 28.6256 30.7664 28.9099 31.5843 28.905C32.4021 28.9001 33.1919 28.6064 33.8142 28.0758C34.4365 27.5451 34.8513 26.8116 34.9854 26.0049C35.1194 25.1981 34.9641 24.3699 34.5468 23.6665C34.1296 22.9631 33.4772 22.4298 32.7049 22.1607C32.6074 20.8511 32.0184 19.6269 31.0559 18.7335C30.0935 17.8401 28.8288 17.3436 27.5156 17.3438H21.0198C21.3736 16.6546 21.8477 16.0719 22.4651 15.658C22.6213 15.5546 22.7852 15.4633 22.9554 15.3851C22.2986 13.4611 22.4697 11.2087 23.1034 9.43964C23.5081 8.30189 24.1509 7.22658 25.0343 6.50971C25.6171 6.03565 26.3108 5.72346 27.0693 5.66333C27.4023 4.0839 28.3366 2.77734 29.5506 1.83384ZM39.6562 28.9063H41.3906C42.7706 28.9063 44.094 28.3581 45.0698 27.3823C46.0456 26.4065 46.5938 25.0831 46.5938 23.7031V19.4597C47.3652 19.1869 48.0154 18.6502 48.4294 17.9445C48.8435 17.2387 48.9947 16.4092 48.8563 15.6028C48.7179 14.7963 48.2989 14.0647 47.6733 13.5373C47.0477 13.0099 46.2558 12.7206 45.4375 12.7206C44.6192 12.7206 43.8273 13.0099 43.2017 13.5373C42.5761 14.0647 42.1571 14.7963 42.0187 15.6028C41.8803 16.4092 42.0315 17.2387 42.4456 17.9445C42.8596 18.6502 43.5098 19.1869 44.2812 19.4597V23.7031C44.2812 25.2988 42.9862 26.5938 41.3906 26.5938H39.6562V2.02809C39.6561 1.7598 39.7493 1.49983 39.9199 1.29271C40.1581 1.00365 40.4286 0.714588 40.7154 0.487963C40.9698 0.289088 41.4114 2.60895e-05 41.9688 2.60895e-05C43.947 -0.00472468 45.8723 0.639465 47.4494 1.83384C48.6634 2.77734 49.6 4.0839 49.9307 5.66333C50.6892 5.72115 51.3829 6.03565 51.9657 6.50971C52.8491 7.22658 53.4919 8.30189 53.8966 9.43964C54.5303 11.2087 54.7014 13.4634 54.0446 15.3828C54.2111 15.4614 54.3753 15.5539 54.5349 15.6603C55.1708 16.0835 55.6541 16.6893 56.0103 17.4039C56.7109 18.8029 57 20.7547 57 23.125C57 25.7636 55.9941 27.5349 54.7176 28.6288C54.0117 29.234 53.1786 29.6726 52.2802 29.9122C52.0489 31.2026 51.4014 32.6964 50.3862 33.9637C49.0681 35.6171 47.0239 37 44.2812 37C42.5792 37 41.1478 36.26 40.0818 35.3859C39.9489 35.2776 39.8419 35.1411 39.7683 34.9863C39.6947 34.8315 39.6564 34.6623 39.6562 34.4909V28.9063ZM31.5625 10.4063C31.2558 10.4063 30.9617 10.5281 30.7449 10.7449C30.5281 10.9618 30.4062 11.2559 30.4062 11.5625C30.4062 11.8692 30.5281 12.1633 30.7449 12.3801C30.9617 12.5969 31.2558 12.7188 31.5625 12.7188C31.8692 12.7188 32.1633 12.5969 32.3801 12.3801C32.5969 12.1633 32.7188 11.8692 32.7188 11.5625C32.7188 11.2559 32.5969 10.9618 32.3801 10.7449C32.1633 10.5281 31.8692 10.4063 31.5625 10.4063ZM31.5625 24.2813C31.2558 24.2813 30.9617 24.4031 30.7449 24.6199C30.5281 24.8368 30.4062 25.1309 30.4062 25.4375C30.4062 25.7442 30.5281 26.0383 30.7449 26.2551C30.9617 26.4719 31.2558 26.5938 31.5625 26.5938C31.8692 26.5938 32.1633 26.4719 32.3801 26.2551C32.5969 26.0383 32.7188 25.7442 32.7188 25.4375C32.7188 25.1309 32.5969 24.8368 32.3801 24.6199C32.1633 24.4031 31.8692 24.2813 31.5625 24.2813ZM45.4375 17.3438C45.7442 17.3438 46.0383 17.2219 46.2551 17.0051C46.4719 16.7883 46.5938 16.4942 46.5938 16.1875C46.5938 15.8809 46.4719 15.5868 46.2551 15.3699C46.0383 15.1531 45.7442 15.0313 45.4375 15.0313C45.1308 15.0313 44.8367 15.1531 44.6199 15.3699C44.4031 15.5868 44.2812 15.8809 44.2812 16.1875C44.2812 16.4942 44.4031 16.7883 44.6199 17.0051C44.8367 17.2219 45.1308 17.3438 45.4375 17.3438Z" fill="#00CECB"/>
</svg>
